<svg xmlns="http://www.w3.org/2000/svg" class="tt-size-01" width="1024" height="1024" viewBox="0 0 1024 1024"><title/><g id="">
											</g><path fill="currentColor" d="M928.001 928.001c0 48.605-39.407 87.999-87.999 87.999h-655.998c-48.594 0-87.999-39.394-87.999-87.999v-832.002c0-48.605 39.406-87.999 87.999-87.999h655.998c48.594 0 87.999 39.394 87.999 87.999v832.002zM880.002 95.999c0-22.094-17.905-39.999-39.999-39.999h-655.998c-22.094 0-39.999 17.905-39.999 39.999v832.002c0 22.094 17.905 39.999 39.999 39.999h655.998c22.094 0 39.999-17.905 39.999-39.999v-832.002z"/><path fill="currentColor" d="M897.167 312.003h-784.003c-13.25 0-17.168-10.739-17.168-24v-184.306c0-49.182 39.248-95.696 87.981-95.696h649.921c51.426 0 94.093 50.431 94.093 95.696v184.306c0 13.261-17.585 24-30.835 24zM143.998 264h735.997v-160.303c0-21.599-24.35-47.697-46.094-47.697h-649.921c-21.873 0-39.982 25.41-39.982 47.697v160.303z"/><path fill="currentColor" d="M376.002 304.003c-13.25 0-24-10.739-24-24v-239.998c0-13.262 10.75-24 24-24s24 10.739 24 24v239.998c0 13.261-10.75 24-24 24z"/><path fill="currentColor" d="M819.283 163.827c0 22.863-18.511 41.392-41.374 41.392s-41.374-18.529-41.374-41.392c0-22.846 18.511-41.374 41.374-41.374s41.374 18.529 41.374 41.374z"/><path fill="currentColor" d="M703.426 163.827c0 22.863-18.511 41.392-41.374 41.392s-41.374-18.529-41.374-41.392c0-22.846 18.511-41.374 41.374-41.374s41.374 18.529 41.374 41.374z"/><path fill="currentColor" d="M587.569 163.827c0 22.863-18.546 41.392-41.374 41.392-22.863 0-41.374-18.529-41.374-41.392 0-22.846 18.511-41.374 41.374-41.374 22.835 0 41.374 18.529 41.374 41.374z"/><path fill="currentColor" d="M499.63 893.345c-126.752 0-229.87-103.101-229.87-229.856s103.119-229.856 229.87-229.856c126.734 0 229.87 103.101 229.87 229.856s-103.137 229.856-229.87 229.856zM499.63 481.632c-100.287 0-181.871 81.566-181.871 181.853 0 100.27 81.584 181.853 181.871 181.853 100.27 0 181.871-81.584 181.871-181.853 0-100.287-81.602-181.853-181.871-181.853z"/><path fill="currentColor" d="M412.033 739.395c-56.127 0-104.85-32.734-129.519-58.942-9.090-9.649-8.641-24.833 1.026-33.923 9.585-9.090 24.769-8.659 33.87 0.962v0c3.327 3.473 82.243 84.351 163.022 16.658 91.425-76.497 187.506-33.17 225.507 0.431 9.934 8.769 10.878 23.936 2.098 33.87-8.787 9.923-23.953 10.867-33.87 2.098-3.17-2.768-80.672-68.433-162.911 0.413-33.439 27.985-67.505 38.432-99.215 38.432z"/><path fill="currentColor" d="M628.946 710.034c0 9.154-7.405 16.559-16.559 16.559-9.136 0-16.541-7.405-16.541-16.559 0-9.136 7.405-16.541 16.541-16.541 9.154 0 16.559 7.405 16.559 16.541z"/><path fill="currentColor" d="M612.387 776.242c0 9.136-7.405 16.559-16.541 16.559s-16.559-7.423-16.559-16.559 7.423-16.541 16.559-16.541c9.136 0 16.541 7.405 16.541 16.541z"/><path fill="currentColor" d="M546.19 726.593c0 9.136-7.405 16.541-16.559 16.541s-16.559-7.405-16.559-16.541c0-9.154 7.405-16.559 16.559-16.559s16.559 7.405 16.559 16.559z"/><path fill="currentColor" d="M513.072 792.801c0 9.136-7.405 16.541-16.541 16.541s-16.541-7.405-16.541-16.541c0-9.154 7.405-16.559 16.541-16.559s16.541 7.405 16.541 16.559z"/><path fill="currentColor" d="M413.758 759.694c0 9.136-7.405 16.541-16.541 16.541s-16.541-7.405-16.541-16.541 7.405-16.559 16.541-16.559c9.136 0 16.541 7.423 16.541 16.559z"/></svg>